<svg width="40" height="25" viewBox="0 0 40 25" fill="none" xmlns="http://www.w3.org/2000/svg">
<g id="Logo" clip-path="url(#clip0_309_1252)">
<path id="Right" d="M40 12.3606C40 19.1932 34.4721 24.7211 27.6395 24.7211C24.7554 24.7211 22.1116 23.7254 20.0172 22.0773C22.9013 19.8112 24.7211 16.3091 24.7211 12.3606C24.7211 8.41208 22.867 4.90994 20.0172 2.64385C22.1116 0.995777 24.7554 6.48499e-05 27.6395 6.48499e-05C34.4721 6.48499e-05 40 5.5623 40 12.3606Z" fill="#F79E1B"/>
<path id="Middle" d="M20.0172 2.64384C20.0172 2.64384 20.0172 2.64384 20.0172 2.64384C22.867 4.90994 24.7211 8.41208 24.7211 12.3606C24.7211 16.3091 22.9013 19.8112 20.0172 22.0773L19.9828 22.0773C17.133 19.8456 15.279 16.3091 15.279 12.3607C15.279 8.41215 17.1331 4.91001 19.9828 2.64392C19.9828 2.64389 19.9829 2.64394 19.9828 2.64392L20.0172 2.64384Z" fill="#FF5F00"/>
<path id="Left" d="M15.279 12.3607C15.279 8.4122 17.133 4.91006 19.9828 2.64396C17.8884 0.995894 15.2446 0.000181198 12.3605 0.000181198C5.5279 0.000181198 0 5.52808 0 12.3607C0 19.1933 5.5279 24.7212 12.3605 24.7212C15.2446 24.7212 17.8884 23.7255 19.9828 22.0774C17.133 19.8457 15.279 16.3092 15.279 12.3607Z" fill="#EB001B"/>
</g>
<defs>
<clipPath id="clip0_309_1252">
<rect width="40" height="24.721" fill="white"/>
</clipPath>
</defs>
</svg>
