<svg width="48" height="48" viewBox="0 0 48 48" fill="none" xmlns="http://www.w3.org/2000/svg">
<g id="Visa">
<g id="logo">
<path id="polygon9" fill-rule="evenodd" clip-rule="evenodd" d="M21.2002 31.047H17.7979L19.9259 18.2323H23.3281L21.2002 31.047Z" fill="#0742A6"/>
<path id="path11" fill-rule="evenodd" clip-rule="evenodd" d="M33.5349 18.5456C32.8638 18.2863 31.7994 18 30.4832 18C27.1233 18 24.7573 19.7449 24.7428 22.2396C24.7149 24.0801 26.4368 25.1024 27.7247 25.7161C29.041 26.3433 29.4884 26.7526 29.4884 27.3116C29.475 28.1701 28.4248 28.5658 27.4452 28.5658C26.0868 28.5658 25.359 28.3618 24.2529 27.8841L23.8049 27.6794L23.3288 30.556C24.1268 30.9101 25.597 31.2243 27.1233 31.238C30.6933 31.238 33.0175 29.5201 33.045 26.8616C33.0586 25.4029 32.1493 24.2851 30.1891 23.3717C28.9991 22.7853 28.2703 22.39 28.2703 21.79C28.2843 21.2446 28.8867 20.686 30.23 20.686C31.3361 20.6587 32.1488 20.9176 32.7644 21.1767L33.0722 21.3128L33.5349 18.5456Z" fill="#0742A6"/>
<path id="path13" fill-rule="evenodd" clip-rule="evenodd" d="M39.624 18.2323H42.2557L45.0005 31.0469H41.8503C41.8503 31.0469 41.542 29.5745 41.4443 29.1246H37.076C36.9497 29.4652 36.362 31.0469 36.362 31.0469H32.792L37.8457 19.2956C38.1959 18.4639 38.8125 18.2323 39.624 18.2323ZM39.415 22.9218C39.415 22.9218 38.3368 25.7711 38.0566 26.5073H40.8846C40.7447 25.8665 40.1004 22.7991 40.1004 22.7991L39.8626 21.6949C39.7625 21.9793 39.6177 22.3702 39.5201 22.6338C39.4538 22.8126 39.4093 22.9328 39.415 22.9218Z" fill="#0742A6"/>
<path id="path15" fill-rule="evenodd" clip-rule="evenodd" d="M14.9567 18.2323L11.6247 26.9707L11.2606 25.1985C10.6446 23.1535 8.71261 20.9317 6.55664 19.827L9.60864 31.0335H13.2065L18.5544 18.2323H14.9567V18.2323Z" fill="#0742A6"/>
<path id="path17" fill-rule="evenodd" clip-rule="evenodd" d="M8.53003 18.2323H3.056L3 18.4912C7.27008 19.5546 10.0981 22.118 11.26 25.199L10.07 19.3095C9.87407 18.491 9.272 18.2593 8.53003 18.2323Z" fill="#0742A6"/>
</g>
</g>
</svg>
