<svg width="321" height="321" viewBox="0 0 321 321" fill="none" xmlns="http://www.w3.org/2000/svg">
<g clip-path="url(#clip0_309_1482)">
<g opacity="0.4" clip-path="url(#clip1_309_1482)">
<path d="M553.486 223.986L290.723 240.07L320.784 292.138L550.819 276.61C556.915 276.203 563.004 277.504 568.401 280.367C573.799 283.23 578.291 287.541 581.373 292.816C584.456 298.091 586.006 304.122 585.85 310.229C585.694 316.337 583.838 322.28 580.49 327.391L378.831 635.261L446.463 631.984L629.012 354.19C637.606 341.134 642.392 325.941 642.834 310.317C643.276 294.692 639.355 279.253 631.513 265.733C623.67 252.212 612.215 241.143 598.432 233.77C584.65 226.396 569.086 223.008 553.486 223.986Z" fill="#E8F1F2"/>
<path d="M580.469 327.353L378.809 635.224L155.489 248.422L192.329 190.678L385.719 525.639L541.59 290.554C543.148 288.68 544.322 286.518 545.044 284.191C545.767 281.863 546.023 279.416 545.799 276.99L550.69 276.735C556.781 276.296 562.874 277.567 568.28 280.406C573.687 283.245 578.193 287.538 581.29 292.802C584.386 298.065 585.95 304.09 585.805 310.195C585.66 316.3 583.812 322.243 580.469 327.353Z" fill="#185092"/>
<path d="M630.588 264.512C622.762 251.268 611.405 240.463 597.788 233.306C584.172 226.149 568.832 222.922 553.486 223.986L290.723 240.07L320.784 292.138L423.052 469.272L385.719 525.639L192.33 190.678L523.632 171.144C539.104 170.223 554.526 173.634 568.166 180.996C581.805 188.358 593.121 199.377 600.842 212.816L630.772 264.657L630.588 264.512Z" fill="url(#paint0_linear_309_1482)"/>
</g>
<g opacity="0.4" clip-path="url(#clip2_309_1482)">
<path d="M33.4855 63.9858L-229.277 80.0704L-199.216 132.138L30.8191 116.61C36.9152 116.203 43.004 117.504 48.4014 120.367C53.7988 123.23 58.291 127.541 61.3732 132.816C64.4555 138.091 66.0057 144.122 65.8497 150.229C65.6937 156.337 63.8377 162.28 60.4902 167.391L-141.169 475.261L-73.5376 471.984L109.012 194.19C117.606 181.134 122.392 165.941 122.834 150.317C123.276 134.692 119.355 119.253 111.512 105.733C103.67 92.2117 92.2145 81.1435 78.4323 73.7696C64.65 66.3956 49.0857 63.0078 33.4855 63.9858Z" fill="url(#paint1_linear_309_1482)"/>
<path d="M60.4684 167.353L-141.191 475.224L-364.511 88.4221L-327.671 30.6778L-134.281 365.639L21.5894 130.554C23.1479 128.68 24.3219 126.518 25.0442 124.191C25.7665 121.863 26.0229 119.416 25.7988 116.99L30.6898 116.735C36.7808 116.296 42.8734 117.567 48.2803 120.406C53.6871 123.245 58.1929 127.538 61.2894 132.802C64.386 138.065 65.9499 144.09 65.8049 150.195C65.6598 156.3 63.8115 162.243 60.4684 167.353Z" fill="#185092"/>
<path d="M110.588 104.512C102.762 91.2678 91.4051 80.463 77.7884 73.3059C64.1716 66.1488 48.8319 62.9217 33.4856 63.9858L-229.277 80.0704L-199.216 132.138L-96.9477 309.272L-134.281 365.639L-327.671 30.6777L3.63223 11.1438C19.1041 10.2225 34.5262 13.6344 48.1657 20.996C61.8051 28.3576 73.1211 39.3771 80.8422 52.8163L110.772 104.657L110.588 104.512Z" fill="url(#paint2_linear_309_1482)"/>
</g>
</g>
<defs>
<linearGradient id="paint0_linear_309_1482" x1="289.057" y1="358.215" x2="585.855" y2="186.858" gradientUnits="userSpaceOnUse">
<stop offset="0.09" stop-color="#4A96D2"/>
<stop offset="0.87" stop-color="#185092"/>
</linearGradient>
<linearGradient id="paint1_linear_309_1482" x1="49.1609" y1="401.345" x2="-159.499" y2="39.9351" gradientUnits="userSpaceOnUse">
<stop offset="0.13" stop-color="#4A96D2"/>
<stop offset="0.99" stop-color="#CECBD1"/>
</linearGradient>
<linearGradient id="paint2_linear_309_1482" x1="-230.943" y1="198.215" x2="65.8554" y2="26.8583" gradientUnits="userSpaceOnUse">
<stop offset="0.09" stop-color="#4A96D2"/>
<stop offset="0.87" stop-color="#185092"/>
</linearGradient>
<clipPath id="clip0_309_1482">
<path d="M0 0H321V321H0V0Z" fill="white"/>
</clipPath>
<clipPath id="clip1_309_1482">
<rect width="554.973" height="554.973" fill="white" transform="matrix(0.866025 -0.5 -0.5 -0.866025 339.486 715.107)"/>
</clipPath>
<clipPath id="clip2_309_1482">
<rect width="554.973" height="554.973" fill="white" transform="matrix(0.866025 -0.5 -0.5 -0.866025 -180.514 555.107)"/>
</clipPath>
</defs>
</svg>
